<?xml version="1.0" encoding="UTF-8" standalone="no"?>
<svg width="98px" height="74px" viewBox="0 0 98 74" version="1.1" xmlns="http://www.w3.org/2000/svg" xmlns:xlink="http://www.w3.org/1999/xlink" xmlns:sketch="http://www.bohemiancoding.com/sketch/ns">
    <!-- Generator: Sketch 3.2.2 (9983) - http://www.bohemiancoding.com/sketch -->
    <title>newspaper</title>
    <desc>Created with Sketch.</desc>
    <defs></defs>
    <g id="Page-1" stroke="none" stroke-width="1" fill="none" fill-rule="evenodd" sketch:type="MSPage">
        <g id="newspaper" sketch:type="MSLayerGroup" fill="#000000">
            <path d="M86.989,0.304 L42.423,0.304 L26.825,0.304 C20.927,0.304 16.148,5.083 16.148,10.986 L16.148,10.995 L10.713,10.995 C7.007,10.995 3.744,12.889 1.829,15.761 C0.676,17.462 0,19.523 0,21.735 L0,21.739 L0,54.34 C0,65.576 5.188,73.178 17.81,73.178 L86.99,73.178 C92.889,73.178 97.663,68.391 97.663,62.497 L97.663,10.986 C97.662,5.083 92.889,0.304 86.989,0.304 L86.989,0.304 Z M11.537,61.321 C8.994,61.321 6.931,59.249 6.931,56.7 L6.931,21.348 C7.276,19.796 8.664,18.627 10.326,18.627 L16.148,18.627 L16.148,26.51 L11.761,26.51 L11.761,31.246 L16.148,31.246 L16.148,37.488 L11.761,37.488 L11.761,42.226 L16.148,42.226 L16.148,48.466 L11.761,48.466 L11.761,53.207 L16.148,53.207 L16.148,56.7 C16.148,59.249 14.086,61.321 11.537,61.321 L11.537,61.321 Z M90.859,58.901 L90.841,58.901 C90.841,63.172 87.379,66.639 83.101,66.639 L83.097,66.657 L17.873,66.657 C21.984,66.477 25.265,63.096 25.265,58.935 L25.278,11.412 C25.278,9.49 26.839,7.933 28.758,7.933 L87.38,7.933 C89.296,7.933 90.859,9.49 90.859,11.412 L90.859,58.901 L90.859,58.901 Z" id="Shape" sketch:type="MSShapeGroup"></path>
            <rect id="Rectangle-path" sketch:type="MSShapeGroup" x="32.251" y="14.686" width="22.357" height="29.443"></rect>
            <rect id="Rectangle-path" sketch:type="MSShapeGroup" x="61.636" y="14.529" width="22.35" height="4.512"></rect>
            <rect id="Rectangle-path" sketch:type="MSShapeGroup" x="61.636" y="27.103" width="22.35" height="4.512"></rect>
            <rect id="Rectangle-path" sketch:type="MSShapeGroup" x="61.636" y="39.672" width="22.35" height="4.512"></rect>
            <rect id="Rectangle-path" sketch:type="MSShapeGroup" x="32.157" y="52.244" width="51.828" height="4.515"></rect>
        </g>
    </g>
</svg>